<svg xmlns="http://www.w3.org/2000/svg" xmlns:xlink="http://www.w3.org/1999/xlink" width="300" zoomAndPan="magnify" viewBox="0 0 224.87999 67.499998" height="90" preserveAspectRatio="xMidYMid meet" version="1.0"><defs><g/><clipPath id="63447f514e"><path d="M 141.398438 9 L 195 9 L 195 58.09375 L 141.398438 58.09375 Z M 141.398438 9 " clip-rule="nonzero"/></clipPath></defs><g clip-path="url(#63447f514e)"><path fill="#737373" d="M 194.84375 35.125 C 194.824219 35.105469 188.859375 29.136719 188.054688 28.332031 L 188.054688 16.132812 C 188.054688 15.527344 187.5625 15.035156 186.953125 15.035156 L 181.511719 15.035156 C 180.902344 15.035156 180.410156 15.527344 180.410156 16.132812 L 180.410156 20.6875 L 169.117188 9.394531 C 168.683594 8.960938 167.984375 8.96875 167.558594 9.394531 C 166.789062 10.171875 143.253906 33.808594 141.832031 35.234375 C 141.402344 35.664062 141.40625 36.363281 141.835938 36.789062 C 142.265625 37.21875 142.960938 37.21875 143.390625 36.785156 L 146.203125 33.964844 L 146.203125 56.933594 C 146.203125 57.539062 146.695312 58.03125 147.300781 58.03125 L 162.46875 58.03125 C 163.074219 58.03125 163.566406 57.539062 163.566406 56.933594 L 163.566406 40.273438 L 173.109375 40.273438 L 173.109375 56.933594 C 173.109375 57.539062 173.601562 58.03125 174.207031 58.03125 L 189.375 58.03125 C 189.984375 58.03125 190.476562 57.539062 190.476562 56.933594 L 190.476562 33.863281 L 193.289062 36.679688 C 193.71875 37.109375 194.414062 37.109375 194.84375 36.679688 C 195.273438 36.25 195.273438 35.554688 194.84375 35.125 Z M 175.308594 55.835938 L 175.308594 39.171875 C 175.308594 38.566406 174.816406 38.074219 174.207031 38.074219 L 162.46875 38.074219 C 161.859375 38.074219 161.367188 38.566406 161.367188 39.171875 L 161.367188 55.835938 L 148.398438 55.835938 L 148.398438 31.753906 L 168.339844 11.726562 L 188.277344 31.664062 L 188.277344 55.835938 Z M 175.308594 55.835938 " fill-opacity="1" fill-rule="nonzero"/></g><g fill="#9d8d7b" fill-opacity="1"><g transform="translate(7.048798, 51.443938)"><g><path d="M 1.4375 0 L 1.4375 -0.359375 C 1.863281 -0.492188 2.15625 -0.773438 2.3125 -1.203125 C 2.476562 -1.640625 2.5625 -2.429688 2.5625 -3.578125 L 2.5625 -16.140625 C 2.5625 -17.296875 2.476562 -18.082031 2.3125 -18.5 C 2.15625 -18.925781 1.863281 -19.207031 1.4375 -19.34375 L 1.4375 -19.703125 L 6 -19.703125 L 6 -19.34375 C 5.5625 -19.207031 5.265625 -18.925781 5.109375 -18.5 C 4.953125 -18.082031 4.875 -17.296875 4.875 -16.140625 L 4.875 -1.71875 C 4.875 -0.875 5.296875 -0.453125 6.140625 -0.453125 L 9.484375 -0.453125 C 10.835938 -0.453125 11.875 -0.648438 12.59375 -1.046875 C 13.320312 -1.453125 13.929688 -2.179688 14.421875 -3.234375 L 14.71875 -3.1875 L 14.53125 0 Z M 1.4375 0 "/></g></g></g><g fill="#9d8d7b" fill-opacity="1"><g transform="translate(22.334693, 51.443938)"><g><path d="M 11.796875 0 C 11.234375 0 10.953125 -0.28125 10.953125 -0.84375 L 10.953125 -5.90625 C 10.671875 -4.757812 10.226562 -3.71875 9.625 -2.78125 C 9.03125 -1.84375 8.332031 -1.097656 7.53125 -0.546875 C 6.726562 0.00390625 5.859375 0.28125 4.921875 0.28125 C 4.234375 0.28125 3.585938 0.140625 2.984375 -0.140625 C 2.378906 -0.421875 1.894531 -0.832031 1.53125 -1.375 C 1.164062 -1.925781 0.984375 -2.601562 0.984375 -3.40625 C 0.984375 -4.382812 1.273438 -5.179688 1.859375 -5.796875 C 2.441406 -6.421875 3.210938 -6.925781 4.171875 -7.3125 C 5.140625 -7.707031 6.179688 -8.054688 7.296875 -8.359375 L 10.953125 -9.34375 C 10.878906 -10.71875 10.503906 -11.726562 9.828125 -12.375 C 9.148438 -13.019531 8.210938 -13.34375 7.015625 -13.34375 C 6.171875 -13.34375 5.347656 -13.140625 4.546875 -12.734375 C 3.742188 -12.335938 2.988281 -11.707031 2.28125 -10.84375 L 2.03125 -11.0625 C 2.832031 -12.0625 3.742188 -12.847656 4.765625 -13.421875 C 5.796875 -13.992188 6.921875 -14.28125 8.140625 -14.28125 C 9.847656 -14.28125 11.101562 -13.832031 11.90625 -12.9375 C 12.71875 -12.039062 13.125 -10.796875 13.125 -9.203125 L 13.125 -3.578125 C 13.125 -2.429688 13.203125 -1.640625 13.359375 -1.203125 C 13.515625 -0.773438 13.8125 -0.492188 14.25 -0.359375 L 14.25 0 Z M 3.09375 -4.1875 C 3.09375 -3.269531 3.367188 -2.570312 3.921875 -2.09375 C 4.484375 -1.613281 5.164062 -1.375 5.96875 -1.375 C 6.71875 -1.375 7.394531 -1.582031 8 -2 C 8.613281 -2.425781 9.132812 -2.976562 9.5625 -3.65625 C 10 -4.332031 10.335938 -5.066406 10.578125 -5.859375 C 10.828125 -6.648438 10.953125 -7.410156 10.953125 -8.140625 L 10.953125 -8.984375 L 7.40625 -8.03125 C 6.707031 -7.84375 6.023438 -7.59375 5.359375 -7.28125 C 4.691406 -6.96875 4.144531 -6.566406 3.71875 -6.078125 C 3.300781 -5.585938 3.09375 -4.957031 3.09375 -4.1875 Z M 3.09375 -4.1875 "/></g></g></g><g fill="#9d8d7b" fill-opacity="1"><g transform="translate(37.254627, 51.443938)"><g/></g></g><g fill="#9d8d7b" fill-opacity="1"><g transform="translate(43.166296, 51.443938)"><g><path d="M 12.078125 0.28125 C 9.921875 0.28125 8.046875 -0.101562 6.453125 -0.875 C 4.867188 -1.644531 3.640625 -2.753906 2.765625 -4.203125 C 1.898438 -5.660156 1.46875 -7.410156 1.46875 -9.453125 C 1.46875 -10.960938 1.738281 -12.347656 2.28125 -13.609375 C 2.820312 -14.878906 3.59375 -15.988281 4.59375 -16.9375 C 5.601562 -17.882812 6.796875 -18.613281 8.171875 -19.125 C 9.554688 -19.644531 11.078125 -19.90625 12.734375 -19.90625 C 13.535156 -19.90625 14.351562 -19.832031 15.1875 -19.6875 C 16.019531 -19.550781 16.785156 -19.378906 17.484375 -19.171875 C 18.179688 -18.960938 18.707031 -18.738281 19.0625 -18.5 L 19.171875 -15.140625 L 18.890625 -15.09375 C 18.347656 -16.363281 17.441406 -17.394531 16.171875 -18.1875 C 14.910156 -18.976562 13.441406 -19.375 11.765625 -19.375 C 10.285156 -19.375 8.941406 -19.046875 7.734375 -18.390625 C 6.535156 -17.734375 5.582031 -16.753906 4.875 -15.453125 C 4.175781 -14.160156 3.828125 -12.554688 3.828125 -10.640625 C 3.828125 -9.328125 4.019531 -8.050781 4.40625 -6.8125 C 4.789062 -5.570312 5.367188 -4.457031 6.140625 -3.46875 C 6.910156 -2.488281 7.859375 -1.710938 8.984375 -1.140625 C 10.109375 -0.566406 11.40625 -0.28125 12.875 -0.28125 C 14.382812 -0.28125 15.707031 -0.671875 16.84375 -1.453125 C 17.988281 -2.242188 18.832031 -3.398438 19.375 -4.921875 L 19.6875 -4.90625 L 19.234375 -1.234375 C 18.578125 -0.878906 17.613281 -0.535156 16.34375 -0.203125 C 15.070312 0.117188 13.648438 0.28125 12.078125 0.28125 Z M 12.078125 0.28125 "/></g></g></g><g fill="#9d8d7b" fill-opacity="1"><g transform="translate(64.02606, 51.443938)"><g><path d="M 11.796875 0 C 11.234375 0 10.953125 -0.28125 10.953125 -0.84375 L 10.953125 -5.90625 C 10.671875 -4.757812 10.226562 -3.71875 9.625 -2.78125 C 9.03125 -1.84375 8.332031 -1.097656 7.53125 -0.546875 C 6.726562 0.00390625 5.859375 0.28125 4.921875 0.28125 C 4.234375 0.28125 3.585938 0.140625 2.984375 -0.140625 C 2.378906 -0.421875 1.894531 -0.832031 1.53125 -1.375 C 1.164062 -1.925781 0.984375 -2.601562 0.984375 -3.40625 C 0.984375 -4.382812 1.273438 -5.179688 1.859375 -5.796875 C 2.441406 -6.421875 3.210938 -6.925781 4.171875 -7.3125 C 5.140625 -7.707031 6.179688 -8.054688 7.296875 -8.359375 L 10.953125 -9.34375 C 10.878906 -10.71875 10.503906 -11.726562 9.828125 -12.375 C 9.148438 -13.019531 8.210938 -13.34375 7.015625 -13.34375 C 6.171875 -13.34375 5.347656 -13.140625 4.546875 -12.734375 C 3.742188 -12.335938 2.988281 -11.707031 2.28125 -10.84375 L 2.03125 -11.0625 C 2.832031 -12.0625 3.742188 -12.847656 4.765625 -13.421875 C 5.796875 -13.992188 6.921875 -14.28125 8.140625 -14.28125 C 9.847656 -14.28125 11.101562 -13.832031 11.90625 -12.9375 C 12.71875 -12.039062 13.125 -10.796875 13.125 -9.203125 L 13.125 -3.578125 C 13.125 -2.429688 13.203125 -1.640625 13.359375 -1.203125 C 13.515625 -0.773438 13.8125 -0.492188 14.25 -0.359375 L 14.25 0 Z M 3.09375 -4.1875 C 3.09375 -3.269531 3.367188 -2.570312 3.921875 -2.09375 C 4.484375 -1.613281 5.164062 -1.375 5.96875 -1.375 C 6.71875 -1.375 7.394531 -1.582031 8 -2 C 8.613281 -2.425781 9.132812 -2.976562 9.5625 -3.65625 C 10 -4.332031 10.335938 -5.066406 10.578125 -5.859375 C 10.828125 -6.648438 10.953125 -7.410156 10.953125 -8.140625 L 10.953125 -8.984375 L 7.40625 -8.03125 C 6.707031 -7.84375 6.023438 -7.59375 5.359375 -7.28125 C 4.691406 -6.96875 4.144531 -6.566406 3.71875 -6.078125 C 3.300781 -5.585938 3.09375 -4.957031 3.09375 -4.1875 Z M 3.09375 -4.1875 "/></g></g></g><g fill="#9d8d7b" fill-opacity="1"><g transform="translate(79.199399, 51.443938)"><g><path d="M 6.359375 0.25 C 5.234375 0.25 4.210938 0.109375 3.296875 -0.171875 C 2.390625 -0.453125 1.703125 -0.742188 1.234375 -1.046875 L 0.984375 -4.453125 L 1.234375 -4.5 C 1.835938 -3.164062 2.625 -2.117188 3.59375 -1.359375 C 4.570312 -0.597656 5.703125 -0.210938 6.984375 -0.203125 C 7.867188 -0.203125 8.597656 -0.441406 9.171875 -0.921875 C 9.742188 -1.398438 10.03125 -2.03125 10.03125 -2.8125 C 10.03125 -3.488281 9.835938 -4.03125 9.453125 -4.4375 C 9.066406 -4.851562 8.554688 -5.191406 7.921875 -5.453125 C 7.296875 -5.722656 6.617188 -5.96875 5.890625 -6.1875 C 5.003906 -6.46875 4.210938 -6.765625 3.515625 -7.078125 C 2.828125 -7.390625 2.285156 -7.796875 1.890625 -8.296875 C 1.492188 -8.804688 1.296875 -9.484375 1.296875 -10.328125 C 1.296875 -11.441406 1.738281 -12.378906 2.625 -13.140625 C 3.519531 -13.898438 4.785156 -14.28125 6.421875 -14.28125 C 7.335938 -14.28125 8.1875 -14.195312 8.96875 -14.03125 C 9.75 -13.875 10.351562 -13.703125 10.78125 -13.515625 L 10.890625 -10.640625 L 10.609375 -10.59375 C 10.160156 -11.601562 9.515625 -12.40625 8.671875 -13 C 7.828125 -13.601562 6.90625 -13.90625 5.90625 -13.90625 C 4.957031 -13.90625 4.195312 -13.6875 3.625 -13.25 C 3.050781 -12.820312 2.765625 -12.253906 2.765625 -11.546875 C 2.765625 -10.960938 2.945312 -10.472656 3.3125 -10.078125 C 3.675781 -9.679688 4.160156 -9.347656 4.765625 -9.078125 C 5.378906 -8.804688 6.050781 -8.550781 6.78125 -8.3125 C 7.332031 -8.132812 7.882812 -7.945312 8.4375 -7.75 C 8.988281 -7.5625 9.492188 -7.320312 9.953125 -7.03125 C 10.410156 -6.738281 10.785156 -6.359375 11.078125 -5.890625 C 11.367188 -5.429688 11.515625 -4.847656 11.515625 -4.140625 C 11.515625 -3.347656 11.320312 -2.617188 10.9375 -1.953125 C 10.550781 -1.285156 9.972656 -0.753906 9.203125 -0.359375 C 8.429688 0.0234375 7.484375 0.226562 6.359375 0.25 Z M 6.359375 0.25 "/></g></g></g><g fill="#9d8d7b" fill-opacity="1"><g transform="translate(91.72652, 51.443938)"><g><path d="M 0.90625 0 L 0.90625 -0.359375 C 1.332031 -0.492188 1.625 -0.773438 1.78125 -1.203125 C 1.945312 -1.640625 2.03125 -2.429688 2.03125 -3.578125 L 2.03125 -10.046875 C 2.03125 -10.703125 1.988281 -11.191406 1.90625 -11.515625 C 1.832031 -11.847656 1.710938 -12.085938 1.546875 -12.234375 C 1.378906 -12.390625 1.164062 -12.523438 0.90625 -12.640625 L 0.90625 -12.953125 L 4 -14.296875 L 4.21875 -14.109375 L 4.21875 -3.578125 C 4.21875 -2.429688 4.300781 -1.640625 4.46875 -1.203125 C 4.644531 -0.773438 4.9375 -0.492188 5.34375 -0.359375 L 5.34375 0 Z M 1.40625 -17.5625 C 1.40625 -18.019531 1.554688 -18.394531 1.859375 -18.6875 C 2.160156 -18.988281 2.523438 -19.140625 2.953125 -19.140625 C 3.398438 -19.140625 3.769531 -18.988281 4.0625 -18.6875 C 4.351562 -18.394531 4.5 -18.019531 4.5 -17.5625 C 4.5 -17.15625 4.347656 -16.796875 4.046875 -16.484375 C 3.753906 -16.171875 3.390625 -16.015625 2.953125 -16.015625 C 2.523438 -16.015625 2.160156 -16.171875 1.859375 -16.484375 C 1.554688 -16.796875 1.40625 -17.15625 1.40625 -17.5625 Z M 1.40625 -17.5625 "/></g></g></g><g fill="#9d8d7b" fill-opacity="1"><g transform="translate(98.060461, 51.443938)"><g><path d="M 5.328125 0.28125 C 4.441406 0.28125 3.742188 -0.0195312 3.234375 -0.625 C 2.734375 -1.238281 2.484375 -2.28125 2.484375 -3.75 L 2.484375 -13.6875 L 0.671875 -13.6875 L 0.671875 -14.078125 L 4.28125 -17.546875 L 4.671875 -17.546875 L 4.671875 -14.078125 L 8.953125 -14.078125 L 8.8125 -13.6875 L 4.671875 -13.6875 L 4.671875 -3.75 C 4.671875 -2.789062 4.851562 -2.109375 5.21875 -1.703125 C 5.582031 -1.296875 6.066406 -1.09375 6.671875 -1.09375 C 7.066406 -1.09375 7.5 -1.203125 7.96875 -1.421875 C 8.4375 -1.640625 8.90625 -2.019531 9.375 -2.5625 L 9.625 -2.3125 C 9.03125 -1.613281 8.367188 -1.003906 7.640625 -0.484375 C 6.921875 0.0234375 6.148438 0.28125 5.328125 0.28125 Z M 5.328125 0.28125 "/></g></g></g><g fill="#9d8d7b" fill-opacity="1"><g transform="translate(107.744347, 51.443938)"><g><path d="M 11.796875 0 C 11.234375 0 10.953125 -0.28125 10.953125 -0.84375 L 10.953125 -5.90625 C 10.671875 -4.757812 10.226562 -3.71875 9.625 -2.78125 C 9.03125 -1.84375 8.332031 -1.097656 7.53125 -0.546875 C 6.726562 0.00390625 5.859375 0.28125 4.921875 0.28125 C 4.234375 0.28125 3.585938 0.140625 2.984375 -0.140625 C 2.378906 -0.421875 1.894531 -0.832031 1.53125 -1.375 C 1.164062 -1.925781 0.984375 -2.601562 0.984375 -3.40625 C 0.984375 -4.382812 1.273438 -5.179688 1.859375 -5.796875 C 2.441406 -6.421875 3.210938 -6.925781 4.171875 -7.3125 C 5.140625 -7.707031 6.179688 -8.054688 7.296875 -8.359375 L 10.953125 -9.34375 C 10.878906 -10.71875 10.503906 -11.726562 9.828125 -12.375 C 9.148438 -13.019531 8.210938 -13.34375 7.015625 -13.34375 C 6.171875 -13.34375 5.347656 -13.140625 4.546875 -12.734375 C 3.742188 -12.335938 2.988281 -11.707031 2.28125 -10.84375 L 2.03125 -11.0625 C 2.832031 -12.0625 3.742188 -12.847656 4.765625 -13.421875 C 5.796875 -13.992188 6.921875 -14.28125 8.140625 -14.28125 C 9.847656 -14.28125 11.101562 -13.832031 11.90625 -12.9375 C 12.71875 -12.039062 13.125 -10.796875 13.125 -9.203125 L 13.125 -3.578125 C 13.125 -2.429688 13.203125 -1.640625 13.359375 -1.203125 C 13.515625 -0.773438 13.8125 -0.492188 14.25 -0.359375 L 14.25 0 Z M 3.09375 -4.1875 C 3.09375 -3.269531 3.367188 -2.570312 3.921875 -2.09375 C 4.484375 -1.613281 5.164062 -1.375 5.96875 -1.375 C 6.71875 -1.375 7.394531 -1.582031 8 -2 C 8.613281 -2.425781 9.132812 -2.976562 9.5625 -3.65625 C 10 -4.332031 10.335938 -5.066406 10.578125 -5.859375 C 10.828125 -6.648438 10.953125 -7.410156 10.953125 -8.140625 L 10.953125 -8.984375 L 7.40625 -8.03125 C 6.707031 -7.84375 6.023438 -7.59375 5.359375 -7.28125 C 4.691406 -6.96875 4.144531 -6.566406 3.71875 -6.078125 C 3.300781 -5.585938 3.09375 -4.957031 3.09375 -4.1875 Z M 3.09375 -4.1875 "/></g></g></g></svg>